<mxfile host="app.diagrams.net" modified="2024-02-26T00:15:11.281Z" agent="Mozilla/5.0 (Windows NT 10.0; Win64; x64) AppleWebKit/537.36 (KHTML, like Gecko) Chrome/122.0.0.0 Safari/537.36 Edg/122.0.0.0" etag="cnCUi_8gY9PDpPci3kbC" version="23.1.6" type="github">
  <diagram name="PÃ¡gina-1" id="79rWZqfCPaMpoIpl5KRc">
    <mxGraphModel dx="880" dy="515" grid="1" gridSize="10" guides="1" tooltips="1" connect="1" arrows="1" fold="1" page="1" pageScale="1" pageWidth="827" pageHeight="1169" math="0" shadow="0">
      <root>
        <mxCell id="0" />
        <mxCell id="1" parent="0" />
        <mxCell id="fRJWpTicC1-LpdF-98xm-10" value="" style="edgeStyle=orthogonalEdgeStyle;rounded=0;orthogonalLoop=1;jettySize=auto;html=1;" edge="1" parent="1" source="fRJWpTicC1-LpdF-98xm-1" target="fRJWpTicC1-LpdF-98xm-8">
          <mxGeometry relative="1" as="geometry" />
        </mxCell>
        <mxCell id="fRJWpTicC1-LpdF-98xm-1" value="INICIO" style="rounded=1;whiteSpace=wrap;html=1;" vertex="1" parent="1">
          <mxGeometry x="354" y="20" width="120" height="60" as="geometry" />
        </mxCell>
        <mxCell id="fRJWpTicC1-LpdF-98xm-7" value="" style="edgeStyle=orthogonalEdgeStyle;rounded=0;orthogonalLoop=1;jettySize=auto;html=1;" edge="1" parent="1" source="fRJWpTicC1-LpdF-98xm-4" target="fRJWpTicC1-LpdF-98xm-6">
          <mxGeometry relative="1" as="geometry" />
        </mxCell>
        <mxCell id="fRJWpTicC1-LpdF-98xm-4" value="Pregunta" style="shape=parallelogram;perimeter=parallelogramPerimeter;whiteSpace=wrap;html=1;fixedSize=1;rounded=1;" vertex="1" parent="1">
          <mxGeometry x="329" y="230" width="170" height="60" as="geometry" />
        </mxCell>
        <mxCell id="fRJWpTicC1-LpdF-98xm-13" value="" style="edgeStyle=orthogonalEdgeStyle;rounded=0;orthogonalLoop=1;jettySize=auto;html=1;" edge="1" parent="1" source="fRJWpTicC1-LpdF-98xm-6" target="fRJWpTicC1-LpdF-98xm-12">
          <mxGeometry relative="1" as="geometry" />
        </mxCell>
        <mxCell id="fRJWpTicC1-LpdF-98xm-6" value="para i = 1&lt;br&gt;hasta i &amp;lt;= pregunta&lt;br&gt;incremento i" style="shape=hexagon;perimeter=hexagonPerimeter2;whiteSpace=wrap;html=1;fixedSize=1;rounded=1;" vertex="1" parent="1">
          <mxGeometry x="354" y="320" width="120" height="80" as="geometry" />
        </mxCell>
        <mxCell id="fRJWpTicC1-LpdF-98xm-11" value="" style="edgeStyle=orthogonalEdgeStyle;rounded=0;orthogonalLoop=1;jettySize=auto;html=1;" edge="1" parent="1" source="fRJWpTicC1-LpdF-98xm-8" target="fRJWpTicC1-LpdF-98xm-4">
          <mxGeometry relative="1" as="geometry" />
        </mxCell>
        <mxCell id="fRJWpTicC1-LpdF-98xm-8" value="Cuantos arreglos quieres tener" style="shape=document;whiteSpace=wrap;html=1;boundedLbl=1;" vertex="1" parent="1">
          <mxGeometry x="354" y="120" width="120" height="80" as="geometry" />
        </mxCell>
        <mxCell id="fRJWpTicC1-LpdF-98xm-25" value="" style="edgeStyle=orthogonalEdgeStyle;rounded=0;orthogonalLoop=1;jettySize=auto;html=1;" edge="1" parent="1" source="fRJWpTicC1-LpdF-98xm-12" target="fRJWpTicC1-LpdF-98xm-14">
          <mxGeometry relative="1" as="geometry" />
        </mxCell>
        <mxCell id="fRJWpTicC1-LpdF-98xm-12" value="arreglo[i]" style="shape=parallelogram;perimeter=parallelogramPerimeter;whiteSpace=wrap;html=1;fixedSize=1;rounded=1;" vertex="1" parent="1">
          <mxGeometry x="354" y="440" width="120" height="60" as="geometry" />
        </mxCell>
        <mxCell id="fRJWpTicC1-LpdF-98xm-16" style="edgeStyle=orthogonalEdgeStyle;rounded=0;orthogonalLoop=1;jettySize=auto;html=1;exitX=0;exitY=0.5;exitDx=0;exitDy=0;entryX=0;entryY=0.5;entryDx=0;entryDy=0;" edge="1" parent="1" source="fRJWpTicC1-LpdF-98xm-14" target="fRJWpTicC1-LpdF-98xm-4">
          <mxGeometry relative="1" as="geometry">
            <Array as="points">
              <mxPoint x="290" y="560" />
              <mxPoint x="290" y="260" />
            </Array>
          </mxGeometry>
        </mxCell>
        <mxCell id="fRJWpTicC1-LpdF-98xm-14" value="Fin (para)" style="shape=loopLimit;whiteSpace=wrap;html=1;" vertex="1" parent="1">
          <mxGeometry x="364" y="535" width="100" height="50" as="geometry" />
        </mxCell>
      </root>
    </mxGraphModel>
  </diagram>
</mxfile>
